<svg xmlns="http://www.w3.org/2000/svg" xmlns:xlink="http://www.w3.org/1999/xlink" width="840" height="602.75"><rect width="840" height="602.75" rx="5" ry="5" class="a"/><svg y="0%" x="0%"><circle cx="20" cy="20" r="6" fill="#ff5f58"/><circle cx="40" cy="20" r="6" fill="#ffbd2e"/><circle cx="60" cy="20" r="6" fill="#18c132"/></svg><svg height="542.75" viewBox="0 0 80 54.275" width="800" x="15" xmlns="http://www.w3.org/2000/svg" xmlns:xlink="http://www.w3.org/1999/xlink" y="50"><style>@keyframes o{0%{transform:translateX(0)}.1%{transform:translateX(-80px)}6.6%{transform:translateX(-160px)}8.8%{transform:translateX(-240px)}10.9%{transform:translateX(-320px)}13.2%{transform:translateX(-400px)}16.3%{transform:translateX(-480px)}19.4%{transform:translateX(-560px)}21.5%{transform:translateX(-640px)}24.8%{transform:translateX(-720px)}31.7%{transform:translateX(-800px)}37.5%{transform:translateX(-1040px)}45.4%{transform:translateX(-1280px)}47.2%{transform:translateX(-1520px)}51.7%{transform:translateX(-1760px)}59.7%{transform:translateX(-2240px)}61.5%{transform:translateX(-2400px)}62.6%{transform:translateX(-2480px)}63.4%{transform:translateX(-2560px)}63.8%{transform:translateX(-2640px)}64.1%{transform:translateX(-2720px)}64.5%{transform:translateX(-2800px)}65.1%{transform:translateX(-2880px)}65.4%{transform:translateX(-2960px)}65.8%{transform:translateX(-3040px)}66.5%{transform:translateX(-3120px)}66.8%{transform:translateX(-3200px)}67.2%{transform:translateX(-3280px)}67.6%{transform:translateX(-3360px)}67.9%{transform:translateX(-3440px)}68.1%{transform:translateX(-3520px)}68.2%{transform:translateX(-3920px)}to{transform:translateX(-4000px)}}.a{fill:#282d35}.f,.g{fill:#b9c0cb;white-space:pre}.g{fill:#6f7783}.h{fill:#b9c0cb}.i,.j,.k{fill:#282d35;white-space:pre}.j,.k{fill:#d290e4}.k{fill:#a8cc8c}</style><g font-family="Monaco,Consolas,Menlo,'Bitstream Vera Sans Mono','Powerline Symbols',monospace" font-size="1.67"><defs><symbol id="1"><text y="1.67" class="f">bash-3.2$</text></symbol><symbol id="2"><text y="1.67" class="f">bash-3.2$</text><text x="10.02" y="1.67" class="f">outdated</text></symbol><symbol id="3"><text y="1.67" class="f">?</text><text x="2.004" y="1.67" class="f">Select</text><text x="9.018" y="1.67" class="f">an</text><text x="12.024" y="1.67" class="f">item:</text><text x="18.036" y="1.67" class="f">(Use</text><text x="23.046" y="1.67" class="f">arrow</text><text x="29.058" y="1.67" class="f">keys)</text></symbol><symbol id="4"><text y="1.67" class="f">❯</text><text x="2.004" y="1.67" class="f">hosted-git-info@3.0.8</text></symbol><symbol id="5"><text x="2.004" y="1.67" class="f">semver@7.3.4</text></symbol><symbol id="6"><text y="1.67" class="f">?</text><text x="2.004" y="1.67" class="f">Select</text><text x="9.018" y="1.67" class="f">an</text><text x="12.024" y="1.67" class="f">item:</text></symbol><symbol id="7"><text x="2.004" y="1.67" class="f">hosted-git-info@3.0.8</text></symbol><symbol id="8"><text y="1.67" class="f">❯</text><text x="2.004" y="1.67" class="f">semver@7.3.4</text></symbol><symbol id="9"><text y="1.67" class="f">?</text><text x="2.004" y="1.67" class="f">Select</text><text x="9.018" y="1.67" class="f">an</text><text x="12.024" y="1.67" class="f">item:</text><text x="18.036" y="1.67" class="f">semver@7.3.4</text></symbol><symbol id="10"><text y="1.67" class="f">⸨</text><text x="1.002" y="1.67" class="g">░░░░░░░░░░░░░░░░░░</text><text x="19.038" y="1.67" class="f">⸩</text><text x="21.042" y="1.67" class="f">⠧</text><text x="23.046" y="1.67" class="f">idealTree:normalize-package-data:</text><path class="h" d="M57.114 0h4v2.171h-4z"/><text x="57.114" y="1.67" class="i">sill</text><text x="62.124" y="1.67" class="j">idealTree</text><text x="72.144" y="1.67" class="f">buildDe</text></symbol><symbol id="11"><text y="1.67" class="f">⸨</text><path class="h" d="M1.002 0h18v2.171h-18z"/><text x="1.002" y="1.67" class="i"></text><text x="19.038" y="1.67" class="f">⸩</text><text x="21.042" y="1.67" class="f">⠋</text><text x="23.046" y="1.67" class="f">reify:resolve:</text>0<text x="38.076" y="1.67" class="k">timing</text><text x="45.09" y="1.67" class="j">reifyNode:node_modules/semver</text><text x="75.15" y="1.67" class="f">Comp</text></symbol><symbol id="12"><text y="1.67" class="f">added</text><text x="6.012" y="1.67" class="f">2</text><text x="8.016" y="1.67" class="f">packages,</text><text x="18.036" y="1.67" class="f">removed</text><text x="26.052" y="1.67" class="f">3</text><text x="28.056" y="1.67" class="f">packages,</text><text x="38.076" y="1.67" class="f">changed</text><text x="46.092" y="1.67" class="f">2</text><text x="48.096" y="1.67" class="f">packages,</text><text x="58.116" y="1.67" class="f">and</text><text x="62.124" y="1.67" class="f">audited</text><text x="70.14" y="1.67" class="f">419</text><text x="74.148" y="1.67" class="f">packag</text></symbol><symbol id="13"><text y="1.67" class="f">es</text><text x="3.006" y="1.67" class="f">in</text><text x="6.012" y="1.67" class="f">1s</text></symbol><symbol id="14"><text y="1.67" class="f">14</text><text x="3.006" y="1.67" class="f">packages</text><text x="12.024" y="1.67" class="f">are</text><text x="16.032" y="1.67" class="f">looking</text><text x="24.048" y="1.67" class="f">for</text><text x="28.056" y="1.67" class="f">funding</text></symbol><symbol id="15"><text x="2.004" y="1.67" class="f">run</text><text x="6.012" y="1.67" class="f">`npm</text><text x="11.022" y="1.67" class="f">fund`</text><text x="17.034" y="1.67" class="f">for</text><text x="21.042" y="1.67" class="f">details</text></symbol><symbol id="16"><text y="1.67" class="f">found</text><text x="6.012" y="1.67" style="white-space:pre" fill="#a8cc8c" font-weight="700">0</text><text x="8.016" y="1.67" class="f">vulnerabilities</text></symbol><symbol id="a"><path fill="transparent" d="M0 0h80v25H0z"/></symbol><symbol id="b"><path fill="#6f7683" d="M0 0h1.102v2.171H0z"/></symbol></defs><path class="a" d="M0 0h80v54.275H0z"/><g style="animation-duration:14.566647s;animation-iteration-count:infinite;animation-name:o;animation-timing-function:steps(1,end)"><svg width="4080"><svg><use xlink:href="#a"/><use xlink:href="#b" x="-.004"/></svg><svg x="80"><use xlink:href="#a"/><use xlink:href="#b" x="9.996"/><use xlink:href="#1"/></svg><svg x="160"><use xlink:href="#a"/><use xlink:href="#b" x="10.996"/><text y="1.67" class="f">bash-3.2$</text><text x="10.02" y="1.67" class="f">o</text></svg><svg x="240"><use xlink:href="#a"/><use xlink:href="#b" x="11.996"/><text y="1.67" class="f">bash-3.2$</text><text x="10.02" y="1.67" class="f">ou</text></svg><svg x="320"><use xlink:href="#a"/><use xlink:href="#b" x="12.996"/><text y="1.67" class="f">bash-3.2$</text><text x="10.02" y="1.67" class="f">out</text></svg><svg x="400"><use xlink:href="#a"/><use xlink:href="#b" x="13.996"/><text y="1.67" class="f">bash-3.2$</text><text x="10.02" y="1.67" class="f">outd</text></svg><svg x="480"><use xlink:href="#a"/><use xlink:href="#b" x="14.996"/><text y="1.67" class="f">bash-3.2$</text><text x="10.02" y="1.67" class="f">outda</text></svg><svg x="560"><use xlink:href="#a"/><use xlink:href="#b" x="15.996"/><text y="1.67" class="f">bash-3.2$</text><text x="10.02" y="1.67" class="f">outdat</text></svg><svg x="640"><use xlink:href="#a"/><use xlink:href="#b" x="16.996"/><text y="1.67" class="f">bash-3.2$</text><text x="10.02" y="1.67" class="f">outdate</text></svg><svg x="720"><use xlink:href="#a"/><use xlink:href="#b" x="17.996"/><use xlink:href="#2"/></svg><svg x="800"><use xlink:href="#a"/><use xlink:href="#b" x="-.004" y="2.146"/><use xlink:href="#2"/></svg><svg x="880"><use xlink:href="#a"/><use xlink:href="#2"/></svg><svg x="960"><use xlink:href="#a"/><use xlink:href="#2"/><use xlink:href="#3" y="2.171"/><use xlink:href="#4" y="4.342"/><use xlink:href="#5" y="6.513"/></svg><svg x="1040"><use xlink:href="#a"/><use xlink:href="#2"/><use xlink:href="#3" y="2.171"/><use xlink:href="#4" y="4.342"/><use xlink:href="#5" y="6.513"/></svg><svg x="1120"><use xlink:href="#a"/><use xlink:href="#2"/></svg><svg x="1200"><use xlink:href="#a"/><use xlink:href="#2"/><use xlink:href="#6" y="2.171"/><use xlink:href="#7" y="4.342"/><use xlink:href="#8" y="6.513"/></svg><svg x="1280"><use xlink:href="#a"/><use xlink:href="#2"/><use xlink:href="#6" y="2.171"/><use xlink:href="#7" y="4.342"/><use xlink:href="#8" y="6.513"/></svg><svg x="1360"><use xlink:href="#a"/><use xlink:href="#2"/></svg><svg x="1440"><use xlink:href="#a"/><use xlink:href="#2"/><use xlink:href="#6" y="2.171"/><use xlink:href="#4" y="4.342"/><use xlink:href="#5" y="6.513"/></svg><svg x="1520"><use xlink:href="#a"/><use xlink:href="#2"/><use xlink:href="#6" y="2.171"/><use xlink:href="#4" y="4.342"/><use xlink:href="#5" y="6.513"/></svg><svg x="1600"><use xlink:href="#a"/><use xlink:href="#2"/></svg><svg x="1680"><use xlink:href="#a"/><use xlink:href="#2"/><use xlink:href="#6" y="2.171"/><use xlink:href="#7" y="4.342"/><use xlink:href="#8" y="6.513"/></svg><svg x="1760"><use xlink:href="#a"/><use xlink:href="#2"/><use xlink:href="#6" y="2.171"/><use xlink:href="#7" y="4.342"/><use xlink:href="#8" y="6.513"/></svg><svg x="1840"><use xlink:href="#a"/><use xlink:href="#2"/></svg><svg x="1920"><use xlink:href="#a"/><use xlink:href="#2"/><use xlink:href="#9" y="2.171"/></svg><svg x="2000"><use xlink:href="#a"/><use xlink:href="#2"/><use xlink:href="#9" y="2.171"/></svg><svg x="2080"><use xlink:href="#a"/><use xlink:href="#2"/><use xlink:href="#9" y="2.171"/></svg><svg x="2160"><use xlink:href="#a"/><use xlink:href="#b" x="-.004" y="4.317"/><use xlink:href="#2"/><use xlink:href="#9" y="2.171"/></svg><svg x="2240"><use xlink:href="#a"/><use xlink:href="#b" x="-.004" y="4.317"/><use xlink:href="#2"/><use xlink:href="#9" y="2.171"/></svg><svg x="2320"><use xlink:href="#a"/><use xlink:href="#2"/><use xlink:href="#9" y="2.171"/></svg><svg x="2400"><use xlink:href="#a"/><use xlink:href="#2"/><use xlink:href="#9" y="2.171"/><text y="6.012" class="f">⸨</text><text x="1.002" y="6.012" class="g">░░░░░░░░░░░░░░░░░░</text><text x="19.038" y="6.012" class="f">⸩</text><text x="21.042" y="6.012" class="f">⠹</text><text x="23.046" y="6.012" class="f">reify:</text>0<text x="30.06" y="6.012" class="k">timing</text><text x="37.074" y="6.012" class="j">arborist:ctor</text><text x="51.102" y="6.012" class="f">Completed</text><text x="61.122" y="6.012" class="f">in</text><text x="64.128" y="6.012" class="f">1ms</text></svg><svg x="2480"><use xlink:href="#a"/><use xlink:href="#2"/><use xlink:href="#9" y="2.171"/><text y="6.012" class="f">⸨</text><text x="1.002" y="6.012" class="g">░░░░░░░░░░░░░░░░░░</text><text x="19.038" y="6.012" class="f">⸩</text><text x="21.042" y="6.012" class="f">⠦</text><text x="23.046" y="6.012" class="f">idealTree:normalize-package-data:</text><path class="h" d="M57.114 4.342h4v2.171h-4z"/><text x="57.114" y="6.012" class="i">sill</text><text x="62.124" y="6.012" class="j">idealTree</text><text x="72.144" y="6.012" class="f">buildDe</text></svg><svg x="2560"><use xlink:href="#a"/><use xlink:href="#2"/><use xlink:href="#9" y="2.171"/><use xlink:href="#10" y="4.342"/></svg><svg x="2640"><use xlink:href="#a"/><use xlink:href="#2"/><use xlink:href="#9" y="2.171"/><use xlink:href="#10" y="4.342"/></svg><svg x="2720"><use xlink:href="#a"/><use xlink:href="#2"/><use xlink:href="#9" y="2.171"/><text y="6.012" class="f">⸨</text><text x="1.002" y="6.012" class="g">░░░░░░░░░░░░░░░░░░</text><text x="19.038" y="6.012" class="f">⸩</text><text x="21.042" y="6.012" class="f">⠋</text><text x="23.046" y="6.012" class="f">idealTree:semver:</text><path class="h" d="M41.082 4.342h4v2.171h-4z"/><text x="41.082" y="6.012" class="i">sill</text><text x="46.092" y="6.012" class="j">placeDep</text><text x="55.11" y="6.012" class="f">ROOT</text><text x="60.12" y="6.012" class="f">semver@7.3.4</text><text x="73.146" y="6.012" class="f">REPLAC</text></svg><svg x="2800"><use xlink:href="#a"/><use xlink:href="#2"/><use xlink:href="#9" y="2.171"/><text y="6.012" class="f">⸨</text><path class="h" d="M1.002 4.342h5v2.171h-5z"/><text x="1.002" y="6.012" class="i"></text><text x="6.012" y="6.012" class="g">░░░░░░░░░░░░░</text><text x="19.038" y="6.012" class="f">⸩</text><text x="21.042" y="6.012" class="f">⠼</text><text x="23.046" y="6.012" class="f">idealTree:lru-cache:</text><path class="h" d="M44.088 4.342h4v2.171h-4z"/><text x="44.088" y="6.012" class="i">sill</text><text x="49.098" y="6.012" class="j">placeDep</text><text x="58.116" y="6.012" class="f">node_modules/semver</text><text x="78.156" y="6.012" class="f">l</text></svg><svg x="2880"><use xlink:href="#a"/><use xlink:href="#2"/><use xlink:href="#9" y="2.171"/><text y="6.012" class="f">⸨</text><path class="h" d="M1.002 4.342h9v2.171h-9z"/><text x="1.002" y="6.012" class="i"></text><text x="10.02" y="6.012" class="g">░░░░░░░░░</text><text x="19.038" y="6.012" class="f">⸩</text><text x="21.042" y="6.012" class="f">⠸</text><text x="23.046" y="6.012" class="f">idealTree:</text>0<text x="34.068" y="6.012" class="k">timing</text><text x="41.082" y="6.012" class="j">idealTree</text><text x="51.102" y="6.012" class="f">Completed</text><text x="61.122" y="6.012" class="f">in</text><text x="64.128" y="6.012" class="f">462ms</text></svg><svg x="2960"><use xlink:href="#a"/><use xlink:href="#2"/><use xlink:href="#9" y="2.171"/><text y="6.012" class="f">⸨</text><path class="h" d="M1.002 4.342h16v2.171h-16z"/><text x="1.002" y="6.012" class="i"></text><text x="17.034" y="6.012" class="g">░░</text><text x="19.038" y="6.012" class="f">⸩</text><text x="21.042" y="6.012" class="f">⠏</text><text x="23.046" y="6.012" class="f">reify:semver:</text>0<text x="37.074" y="6.012" class="k">timing</text><text x="44.088" y="6.012" class="j">reifyNode:node_modules/semver/node_</text></svg><svg x="3040"><use xlink:href="#a"/><use xlink:href="#2"/><use xlink:href="#9" y="2.171"/><text y="6.012" class="f">⸨</text><path class="h" d="M1.002 4.342h18v2.171h-18z"/><text x="1.002" y="6.012" class="i"></text><text x="19.038" y="6.012" class="f">⸩</text><text x="21.042" y="6.012" class="f">⠇</text><text x="23.046" y="6.012" class="f">reify:resolve:</text>0<text x="38.076" y="6.012" class="k">timing</text><text x="45.09" y="6.012" class="j">reifyNode:node_modules/semver</text><text x="75.15" y="6.012" class="f">Comp</text></svg><svg x="3120"><use xlink:href="#a"/><use xlink:href="#2"/><use xlink:href="#9" y="2.171"/><text y="6.012" class="f">⸨</text><path class="h" d="M1.002 4.342h18v2.171h-18z"/><text x="1.002" y="6.012" class="i"></text><text x="19.038" y="6.012" class="f">⸩</text><text x="21.042" y="6.012" class="f">⠏</text><text x="23.046" y="6.012" class="f">reify:resolve:</text>0<text x="38.076" y="6.012" class="k">timing</text><text x="45.09" y="6.012" class="j">reifyNode:node_modules/semver</text><text x="75.15" y="6.012" class="f">Comp</text></svg><svg x="3200"><use xlink:href="#a"/><use xlink:href="#2"/><use xlink:href="#9" y="2.171"/><use xlink:href="#11" y="4.342"/></svg><svg x="3280"><use xlink:href="#a"/><use xlink:href="#2"/><use xlink:href="#9" y="2.171"/><use xlink:href="#11" y="4.342"/></svg><svg x="3360"><use xlink:href="#a"/><use xlink:href="#2"/><use xlink:href="#9" y="2.171"/><use xlink:href="#11" y="4.342"/></svg><svg x="3440"><use xlink:href="#a"/><use xlink:href="#2"/><use xlink:href="#9" y="2.171"/><use xlink:href="#11" y="4.342"/></svg><svg x="3520"><use xlink:href="#a"/><use xlink:href="#b" x="-.004" y="4.317"/><use xlink:href="#2"/><use xlink:href="#9" y="2.171"/></svg><svg x="3600"><use xlink:href="#a"/><use xlink:href="#b" x="-.004" y="10.83"/><use xlink:href="#2"/><use xlink:href="#9" y="2.171"/><use xlink:href="#12" y="6.513"/><use xlink:href="#13" y="8.684"/></svg><svg x="3680"><use xlink:href="#a"/><use xlink:href="#b" x="-.004" y="13.001"/><use xlink:href="#2"/><use xlink:href="#9" y="2.171"/><use xlink:href="#12" y="6.513"/><use xlink:href="#13" y="8.684"/></svg><svg x="3760"><use xlink:href="#a"/><use xlink:href="#b" x="-.004" y="17.343"/><use xlink:href="#2"/><use xlink:href="#9" y="2.171"/><use xlink:href="#12" y="6.513"/><use xlink:href="#13" y="8.684"/><use xlink:href="#14" y="13.026"/><use xlink:href="#15" y="15.197"/></svg><svg x="3840"><use xlink:href="#a"/><use xlink:href="#b" x="-.004" y="21.685"/><use xlink:href="#2"/><use xlink:href="#9" y="2.171"/><use xlink:href="#12" y="6.513"/><use xlink:href="#13" y="8.684"/><use xlink:href="#14" y="13.026"/><use xlink:href="#15" y="15.197"/><use xlink:href="#16" y="19.539"/></svg><svg x="3920"><use xlink:href="#a"/><use xlink:href="#b" x="9.996" y="21.685"/><use xlink:href="#2"/><use xlink:href="#9" y="2.171"/><use xlink:href="#12" y="6.513"/><use xlink:href="#13" y="8.684"/><use xlink:href="#14" y="13.026"/><use xlink:href="#15" y="15.197"/><use xlink:href="#16" y="19.539"/><use xlink:href="#1" y="21.71"/></svg><svg x="4000"><use xlink:href="#a"/><use xlink:href="#b" x="-.004" y="23.856"/><use xlink:href="#2"/><use xlink:href="#9" y="2.171"/><use xlink:href="#12" y="6.513"/><use xlink:href="#13" y="8.684"/><use xlink:href="#14" y="13.026"/><use xlink:href="#15" y="15.197"/><use xlink:href="#16" y="19.539"/><text y="23.38" class="f">bash-3.2$</text><text x="10.02" y="23.38" class="f">exit</text></svg></svg></g></g></svg></svg>