<svg xmlns="http://www.w3.org/2000/svg" xmlns:xlink="http://www.w3.org/1999/xlink" width="540" height="385.65"><rect width="540" height="385.65" rx="5" ry="5" class="a"/><svg y="0%" x="0%"><circle cx="20" cy="20" r="6" fill="#ff5f58"/><circle cx="40" cy="20" r="6" fill="#ffbd2e"/><circle cx="60" cy="20" r="6" fill="#18c132"/></svg><svg height="325.65" viewBox="0 0 50 32.565" width="500" x="15" xmlns="http://www.w3.org/2000/svg" xmlns:xlink="http://www.w3.org/1999/xlink" y="50"><style>@keyframes o{0%{transform:translateX(0)}2.74%{transform:translateX(-50px)}10.4%{transform:translateX(-100px)}14.47%{transform:translateX(-150px)}16.81%{transform:translateX(-200px)}24.84%{transform:translateX(-250px)}25.88%{transform:translateX(-300px)}25.91%{transform:translateX(-350px)}25.92%{transform:translateX(-500px)}33.15%{transform:translateX(-600px)}33.16%{transform:translateX(-650px)}34.69%{transform:translateX(-700px)}34.7%{transform:translateX(-750px)}38.45%{transform:translateX(-850px)}42.01%{transform:translateX(-1000px)}50.95%{transform:translateX(-1100px)}50.96%{transform:translateX(-1200px)}52.08%{transform:translateX(-1250px)}52.11%{transform:translateX(-1300px)}52.14%{transform:translateX(-1350px)}52.18%{transform:translateX(-1400px)}to{transform:translateX(-1450px)}}.a{fill:#282d35}.f,.g,.h,.i{fill:#e88388;white-space:pre}.g,.h,.i{fill:#dbab79}.h,.i{fill:#a8cc8c}.i{fill:#b9bfca}.j{fill:#b9c0cb}.j,.k,.l{white-space:pre}.k{fill:#b9c0cb;font-weight:700}.l{fill:#66c2cd}</style><g font-family="Monaco,Consolas,Menlo,'Bitstream Vera Sans Mono','Powerline Symbols',monospace" font-size="1.67"><defs><symbol id="1"><text y="1.67" class="f">ruyadorno</text><text x="9.018" y="1.67" class="g">@macbookpro</text><text x="21.042" y="1.67" class="h">~/tmp</text></symbol><symbol id="2"><text y="1.67" class="f">ruyadorno</text><text x="9.018" y="1.67" class="g">@macbookpro</text><text x="21.042" y="1.67" class="h">~/tmp</text><text x="27.054" y="1.67" class="i">ntl</text></symbol><symbol id="3"><text y="1.67" class="h">⬢</text><text x="3.006" y="1.67" class="j">Node</text><text x="8.016" y="1.67" class="j">Task</text><text x="13.026" y="1.67" class="j">List</text></symbol><symbol id="4"><text y="1.67" class="h">?</text><text x="2.004" y="1.67" class="k">Select</text><text x="9.018" y="1.67" class="k">a</text><text x="11.022" y="1.67" class="k">task</text><text x="16.032" y="1.67" class="k">to</text><text x="19.038" y="1.67" class="k">run:</text><text x="24.048" y="1.67" class="j">(Use</text><text x="29.058" y="1.67" class="j">arrow</text><text x="35.07" y="1.67" class="j">keys)</text></symbol><symbol id="5"><text y="1.67" class="l">❯</text><text x="3.006" y="1.67" class="l">hello</text><text x="9.018" y="1.67" class="l">›</text><text x="11.022" y="1.67" class="l">Say</text><text x="15.03" y="1.67" class="l">hello</text></symbol><symbol id="6"><text x="2.004" y="1.67" class="j">server</text><text x="9.018" y="1.67" class="j">›</text><text x="11.022" y="1.67" class="j">Start</text><text x="17.034" y="1.67" class="j">dev</text><text x="21.042" y="1.67" class="j">server</text></symbol><symbol id="7"><text x="4.008" y="1.67" class="j">test</text><text x="9.018" y="1.67" class="j">›</text><text x="11.022" y="1.67" class="j">Run</text><text x="15.03" y="1.67" class="j">some</text><text x="20.04" y="1.67" class="j">failing</text><text x="28.056" y="1.67" class="j">test</text></symbol><symbol id="8"><text y="1.67" class="h">?</text><text x="2.004" y="1.67" class="k">Select</text><text x="9.018" y="1.67" class="k">a</text><text x="11.022" y="1.67" class="k">task</text><text x="16.032" y="1.67" class="k">to</text><text x="19.038" y="1.67" class="k">run:</text></symbol><symbol id="9"><text x="3.006" y="1.67" class="j">hello</text><text x="9.018" y="1.67" class="j">›</text><text x="11.022" y="1.67" class="j">Say</text><text x="15.03" y="1.67" class="j">hello</text></symbol><symbol id="10"><text y="1.67" class="l">❯</text><text x="2.004" y="1.67" class="l">server</text><text x="9.018" y="1.67" class="l">›</text><text x="11.022" y="1.67" class="l">Start</text><text x="17.034" y="1.67" class="l">dev</text><text x="21.042" y="1.67" class="l">server</text></symbol><symbol id="11"><text y="1.67" class="h">?</text><text x="2.004" y="1.67" class="k">Select</text><text x="9.018" y="1.67" class="k">a</text><text x="11.022" y="1.67" class="k">task</text><text x="16.032" y="1.67" class="k">to</text><text x="19.038" y="1.67" class="k">run:</text><text x="25.05" y="1.67" class="l">hello</text><text x="31.062" y="1.67" class="l">›</text><text x="33.066" y="1.67" class="l">Say</text><text x="37.074" y="1.67" class="l">hello</text></symbol><symbol id="12"><text y="1.67" class="j">&gt;</text><text x="2.004" y="1.67" class="j">tmp@1.0.0</text><text x="12.024" y="1.67" class="j">hello</text><text x="18.036" y="1.67" class="j">/Users/ruyadorno/tmp</text></symbol><symbol id="13"><text y="1.67" class="j">&gt;</text><text x="2.004" y="1.67" class="j">echo</text><text x="7.014" y="1.67" class="j">&quot;Hello</text><text x="14.028" y="1.67" class="j">world</text><text x="20.04" y="1.67" class="j">:)&quot;</text></symbol><symbol id="14"><text y="1.67" class="j">Hello</text><text x="6.012" y="1.67" class="j">world</text><text x="12.024" y="1.67" class="j">:)</text></symbol><symbol id="a"><path fill="transparent" d="M0 0h50v15H0z"/></symbol><symbol id="b"><path fill="#6f7683" d="M0 0h1.102v2.171H0z"/></symbol></defs><path class="a" d="M0 0h50v32.565H0z"/><g style="animation-duration:20.22274s;animation-iteration-count:infinite;animation-name:o;animation-timing-function:steps(1,end)"><svg width="1500"><svg><use xlink:href="#a"/><use xlink:href="#b" x="-.004"/></svg><svg x="50"><use xlink:href="#a"/><use xlink:href="#b" x="26.996"/><use xlink:href="#1"/></svg><svg x="100"><use xlink:href="#a"/><use xlink:href="#b" x="27.996"/><text y="1.67" class="f">ruyadorno</text><text x="9.018" y="1.67" class="g">@macbookpro</text><text x="21.042" y="1.67" class="h">~/tmp</text><text x="27.054" y="1.67" class="i">n</text></svg><svg x="150"><use xlink:href="#a"/><use xlink:href="#b" x="28.996"/><text y="1.67" class="f">ruyadorno</text><text x="9.018" y="1.67" class="g">@macbookpro</text><text x="21.042" y="1.67" class="h">~/tmp</text><text x="27.054" y="1.67" class="i">nt</text></svg><svg x="200"><use xlink:href="#a"/><use xlink:href="#b" x="29.996"/><use xlink:href="#2"/></svg><svg x="250"><use xlink:href="#a"/><use xlink:href="#b" x="-.004" y="2.146"/><use xlink:href="#2"/></svg><svg x="300"><use xlink:href="#a"/><use xlink:href="#b" x="-.004" y="4.317"/><use xlink:href="#2"/><use xlink:href="#3" y="2.171"/></svg><svg x="350"><use xlink:href="#a"/><use xlink:href="#2"/><use xlink:href="#3" y="2.171"/></svg><svg x="400"><use xlink:href="#a"/><use xlink:href="#2"/><use xlink:href="#3" y="2.171"/><use xlink:href="#4" y="4.342"/><use xlink:href="#5" y="6.513"/><use xlink:href="#6" y="8.684"/><use xlink:href="#7" y="10.855"/></svg><svg x="450"><use xlink:href="#a"/><use xlink:href="#2"/><use xlink:href="#3" y="2.171"/><use xlink:href="#4" y="4.342"/><use xlink:href="#5" y="6.513"/><use xlink:href="#6" y="8.684"/><use xlink:href="#7" y="10.855"/></svg><svg x="500"><use xlink:href="#a"/><use xlink:href="#2"/><use xlink:href="#3" y="2.171"/><use xlink:href="#4" y="4.342"/><use xlink:href="#5" y="6.513"/><use xlink:href="#6" y="8.684"/><use xlink:href="#7" y="10.855"/></svg><svg x="550"><use xlink:href="#a"/><use xlink:href="#2"/><use xlink:href="#3" y="2.171"/></svg><svg x="600"><use xlink:href="#a"/><use xlink:href="#2"/><use xlink:href="#3" y="2.171"/><use xlink:href="#8" y="4.342"/><use xlink:href="#9" y="6.513"/><use xlink:href="#10" y="8.684"/><use xlink:href="#7" y="10.855"/></svg><svg x="650"><use xlink:href="#a"/><use xlink:href="#2"/><use xlink:href="#3" y="2.171"/><use xlink:href="#8" y="4.342"/><use xlink:href="#9" y="6.513"/><use xlink:href="#10" y="8.684"/><use xlink:href="#7" y="10.855"/></svg><svg x="700"><use xlink:href="#a"/><use xlink:href="#2"/><use xlink:href="#3" y="2.171"/></svg><svg x="750"><use xlink:href="#a"/><use xlink:href="#2"/><use xlink:href="#3" y="2.171"/><use xlink:href="#8" y="4.342"/><use xlink:href="#9" y="6.513"/><use xlink:href="#6" y="8.684"/><text y="12.525" class="l">❯</text><text x="4.008" y="12.525" class="l">test</text><text x="9.018" y="12.525" class="l">›</text><text x="11.022" y="12.525" class="l">Run</text><text x="15.03" y="12.525" class="l">some</text><text x="20.04" y="12.525" class="l">failing</text><text x="28.056" y="12.525" class="l">test</text></svg><svg x="800"><use xlink:href="#a"/><use xlink:href="#2"/><use xlink:href="#3" y="2.171"/></svg><svg x="850"><use xlink:href="#a"/><use xlink:href="#2"/><use xlink:href="#3" y="2.171"/><use xlink:href="#8" y="4.342"/><use xlink:href="#9" y="6.513"/><use xlink:href="#10" y="8.684"/><use xlink:href="#7" y="10.855"/></svg><svg x="900"><use xlink:href="#a"/><use xlink:href="#2"/><use xlink:href="#3" y="2.171"/></svg><svg x="950"><use xlink:href="#a"/><use xlink:href="#2"/><use xlink:href="#3" y="2.171"/><use xlink:href="#8" y="4.342"/><use xlink:href="#5" y="6.513"/><use xlink:href="#6" y="8.684"/><use xlink:href="#7" y="10.855"/></svg><svg x="1000"><use xlink:href="#a"/><use xlink:href="#2"/><use xlink:href="#3" y="2.171"/><use xlink:href="#8" y="4.342"/><use xlink:href="#5" y="6.513"/><use xlink:href="#6" y="8.684"/><use xlink:href="#7" y="10.855"/></svg><svg x="1050"><use xlink:href="#a"/><use xlink:href="#2"/><use xlink:href="#3" y="2.171"/></svg><svg x="1100"><use xlink:href="#a"/><use xlink:href="#2"/><use xlink:href="#3" y="2.171"/><use xlink:href="#11" y="4.342"/></svg><svg x="1150"><use xlink:href="#a"/><use xlink:href="#2"/><use xlink:href="#3" y="2.171"/><use xlink:href="#11" y="4.342"/></svg><svg x="1200"><use xlink:href="#a"/><use xlink:href="#b" x="-.004" y="6.488"/><use xlink:href="#2"/><use xlink:href="#3" y="2.171"/><use xlink:href="#11" y="4.342"/></svg><svg x="1250"><use xlink:href="#a"/><use xlink:href="#b" x="-.004" y="15.172"/><use xlink:href="#2"/><use xlink:href="#3" y="2.171"/><use xlink:href="#11" y="4.342"/><use xlink:href="#12" y="8.684"/><use xlink:href="#13" y="10.855"/></svg><svg x="1300"><use xlink:href="#a"/><use xlink:href="#b" x="-.004" y="17.343"/><use xlink:href="#2"/><use xlink:href="#3" y="2.171"/><use xlink:href="#11" y="4.342"/><use xlink:href="#12" y="8.684"/><use xlink:href="#13" y="10.855"/><use xlink:href="#14" y="15.197"/></svg><svg x="1350"><use xlink:href="#a"/><use xlink:href="#b" x="-.004" y="17.343"/><use xlink:href="#2"/><use xlink:href="#3" y="2.171"/><use xlink:href="#11" y="4.342"/><use xlink:href="#12" y="8.684"/><use xlink:href="#13" y="10.855"/><use xlink:href="#14" y="15.197"/></svg><svg x="1400"><use xlink:href="#a"/><use xlink:href="#b" x="26.996" y="17.343"/><use xlink:href="#2"/><use xlink:href="#3" y="2.171"/><use xlink:href="#11" y="4.342"/><use xlink:href="#12" y="8.684"/><use xlink:href="#13" y="10.855"/><use xlink:href="#14" y="15.197"/><use xlink:href="#1" y="17.368"/></svg><svg x="1450"><use xlink:href="#a"/><use xlink:href="#b" x="-.004" y="19.514"/><use xlink:href="#2"/><use xlink:href="#3" y="2.171"/><use xlink:href="#11" y="4.342"/><use xlink:href="#12" y="8.684"/><use xlink:href="#13" y="10.855"/><use xlink:href="#14" y="15.197"/><text y="19.038" class="f">ruyadorno</text><text x="9.018" y="19.038" class="g">@macbookpro</text><text x="21.042" y="19.038" class="h">~/tmp</text><text x="27.054" y="19.038" class="i">exit</text></svg></svg></g></g></svg></svg>