<svg xmlns="http://www.w3.org/2000/svg" xmlns:xlink="http://www.w3.org/1999/xlink" width="540" height="385.65"><rect width="540" height="385.65" rx="5" ry="5" class="a"/><svg y="0%" x="0%"><circle cx="20" cy="20" r="6" fill="#ff5f58"/><circle cx="40" cy="20" r="6" fill="#ffbd2e"/><circle cx="60" cy="20" r="6" fill="#18c132"/></svg><svg height="325.65" viewBox="0 0 50 32.565" width="500" x="15" xmlns="http://www.w3.org/2000/svg" xmlns:xlink="http://www.w3.org/1999/xlink" y="50"><style>@keyframes p{0%{transform:translateX(0)}2.1%{transform:translateX(-50px)}6.95%{transform:translateX(-100px)}10.17%{transform:translateX(-150px)}14.48%{transform:translateX(-200px)}21.52%{transform:translateX(-250px)}23.98%{transform:translateX(-300px)}28.11%{transform:translateX(-350px)}36.61%{transform:translateX(-400px)}37.54%{transform:translateX(-450px)}37.58%{transform:translateX(-600px)}37.59%{transform:translateX(-650px)}46.75%{transform:translateX(-800px)}49.39%{transform:translateX(-950px)}52.75%{transform:translateX(-1150px)}67.01%{transform:translateX(-1400px)}68.01%{transform:translateX(-1450px)}68.03%{transform:translateX(-1500px)}69.01%{transform:translateX(-1550px)}69.03%{transform:translateX(-1600px)}69.06%{transform:translateX(-1650px)}69.1%{transform:translateX(-1700px)}to{transform:translateX(-1750px)}}.a{fill:#282d35}.f,.g,.h,.i{fill:#e88388;white-space:pre}.g,.h,.i{fill:#dbab79}.h,.i{fill:#a8cc8c}.i{fill:#b9bfca}.j,.k{fill:#b9c0cb;white-space:pre}.k,.l{font-weight:700}.l,.m{fill:#66c2cd;white-space:pre}</style><g font-family="Monaco,Consolas,Menlo,'Bitstream Vera Sans Mono','Powerline Symbols',monospace" font-size="1.67"><defs><symbol id="1"><text y="1.67" class="f">ruyadorno</text><text x="9.018" y="1.67" class="g">@macbookpro</text><text x="21.042" y="1.67" class="h">~/tmp</text></symbol><symbol id="2"><text y="1.67" class="f">ruyadorno</text><text x="9.018" y="1.67" class="g">@macbookpro</text><text x="21.042" y="1.67" class="h">~/tmp</text><text x="27.054" y="1.67" class="i">ntl</text></symbol><symbol id="3"><text y="1.67" class="f">ruyadorno</text><text x="9.018" y="1.67" class="g">@macbookpro</text><text x="21.042" y="1.67" class="h">~/tmp</text><text x="27.054" y="1.67" class="i">ntl</text><text x="31.062" y="1.67" class="i">-m</text></symbol><symbol id="4"><text y="1.67" class="h">⬢</text><text x="3.006" y="1.67" class="j">Node</text><text x="8.016" y="1.67" class="j">Task</text><text x="13.026" y="1.67" class="j">List</text></symbol><symbol id="5"><text y="1.67" class="h">?</text><text x="2.004" y="1.67" class="k">Select</text><text x="9.018" y="1.67" class="k">a</text><text x="11.022" y="1.67" class="k">task</text><text x="16.032" y="1.67" class="k">to</text><text x="19.038" y="1.67" class="k">run:</text><text x="24.048" y="1.67" class="j">(Press</text><text x="31.062" y="1.67" class="l">&lt;space&gt;</text><text x="39.078" y="1.67" class="j">to</text><text x="42.084" y="1.67" class="j">select,</text></symbol><symbol id="6"><text y="1.67" class="l">&lt;a&gt;</text><text x="4.008" y="1.67" class="j">to</text><text x="7.014" y="1.67" class="j">toggle</text><text x="14.028" y="1.67" class="j">all,</text><text x="19.038" y="1.67" class="l">&lt;i&gt;</text><text x="23.046" y="1.67" class="j">to</text><text x="26.052" y="1.67" class="j">invert</text><text x="33.066" y="1.67" class="j">selection)</text></symbol><symbol id="7"><text y="1.67" class="m">❯◯</text><text x="4.008" y="1.67" class="m">hello</text><text x="10.02" y="1.67" class="m">›</text><text x="12.024" y="1.67" class="m">Say</text><text x="16.032" y="1.67" class="m">hello</text></symbol><symbol id="8"><text x="1.002" y="1.67" class="j">◯</text><text x="3.006" y="1.67" class="j">server</text><text x="10.02" y="1.67" class="j">›</text><text x="12.024" y="1.67" class="j">Start</text><text x="18.036" y="1.67" class="j">dev</text><text x="22.044" y="1.67" class="j">server</text></symbol><symbol id="9"><text x="1.002" y="1.67" class="j">◯</text><text x="5.01" y="1.67" class="j">test</text><text x="10.02" y="1.67" class="j">›</text><text x="12.024" y="1.67" class="j">Run</text><text x="16.032" y="1.67" class="j">some</text><text x="21.042" y="1.67" class="j">failing</text><text x="29.058" y="1.67" class="j">test</text></symbol><symbol id="10"><text y="1.67" class="h">?</text><text x="2.004" y="1.67" class="k">Select</text><text x="9.018" y="1.67" class="k">a</text><text x="11.022" y="1.67" class="k">task</text><text x="16.032" y="1.67" class="k">to</text><text x="19.038" y="1.67" class="k">run:</text></symbol><symbol id="11"><text y="1.67" class="m">❯</text><text x="1.002" y="1.67" class="h">◉</text><text x="4.008" y="1.67" class="m">hello</text><text x="10.02" y="1.67" class="m">›</text><text x="12.024" y="1.67" class="m">Say</text><text x="16.032" y="1.67" class="m">hello</text></symbol><symbol id="12"><text x="1.002" y="1.67" class="h">◉</text><text x="4.008" y="1.67" class="j">hello</text><text x="10.02" y="1.67" class="j">›</text><text x="12.024" y="1.67" class="j">Say</text><text x="16.032" y="1.67" class="j">hello</text></symbol><symbol id="13"><text y="1.67" class="m">❯◯</text><text x="3.006" y="1.67" class="m">server</text><text x="10.02" y="1.67" class="m">›</text><text x="12.024" y="1.67" class="m">Start</text><text x="18.036" y="1.67" class="m">dev</text><text x="22.044" y="1.67" class="m">server</text></symbol><symbol id="14"><text y="1.67" class="m">❯</text><text x="1.002" y="1.67" class="h">◉</text><text x="3.006" y="1.67" class="m">server</text><text x="10.02" y="1.67" class="m">›</text><text x="12.024" y="1.67" class="m">Start</text><text x="18.036" y="1.67" class="m">dev</text><text x="22.044" y="1.67" class="m">server</text></symbol><symbol id="15"><text y="1.67" class="h">?</text><text x="2.004" y="1.67" class="k">Select</text><text x="9.018" y="1.67" class="k">a</text><text x="11.022" y="1.67" class="k">task</text><text x="16.032" y="1.67" class="k">to</text><text x="19.038" y="1.67" class="k">run:</text><text x="25.05" y="1.67" class="m">hello</text><text x="31.062" y="1.67" class="m">›</text><text x="33.066" y="1.67" class="m">Say</text><text x="37.074" y="1.67" class="m">hello,</text><text x="44.088" y="1.67" class="m">server</text></symbol><symbol id="16"><text x="1.002" y="1.67" class="m">›</text><text x="3.006" y="1.67" class="m">Start</text><text x="9.018" y="1.67" class="m">dev</text><text x="13.026" y="1.67" class="m">server</text></symbol><symbol id="17"><text y="1.67" class="j">&gt;</text><text x="2.004" y="1.67" class="j">tmp@1.0.0</text><text x="12.024" y="1.67" class="j">hello</text><text x="18.036" y="1.67" class="j">/Users/ruyadorno/tmp</text></symbol><symbol id="18"><text y="1.67" class="j">&gt;</text><text x="2.004" y="1.67" class="j">echo</text><text x="7.014" y="1.67" class="j">&quot;Hello</text><text x="14.028" y="1.67" class="j">world</text><text x="20.04" y="1.67" class="j">:)&quot;</text></symbol><symbol id="19"><text y="1.67" class="j">Hello</text><text x="6.012" y="1.67" class="j">world</text><text x="12.024" y="1.67" class="j">:)</text></symbol><symbol id="20"><text y="1.67" class="j">&gt;</text><text x="2.004" y="1.67" class="j">tmp@1.0.0</text><text x="12.024" y="1.67" class="j">server</text><text x="19.038" y="1.67" class="j">/Users/ruyadorno/tmp</text></symbol><symbol id="21"><text y="1.67" class="j">&gt;</text><text x="2.004" y="1.67" class="j">echo</text><text x="7.014" y="1.67" class="j">&quot;Running</text><text x="16.032" y="1.67" class="j">server...&quot;</text></symbol><symbol id="22"><text y="1.67" class="j">Running</text><text x="8.016" y="1.67" class="j">server...</text></symbol><symbol id="a"><path fill="transparent" d="M0 0h50v15H0z"/></symbol><symbol id="b"><path fill="#6f7683" d="M0 0h1.102v2.171H0z"/></symbol></defs><path class="a" d="M0 0h50v32.565H0z"/><g style="animation-duration:23.057907s;animation-iteration-count:infinite;animation-name:p;animation-timing-function:steps(1,end)"><svg width="1800"><svg><use xlink:href="#a"/><use xlink:href="#b" x="-.004"/></svg><svg x="50"><use xlink:href="#a"/><use xlink:href="#b" x="26.996"/><use xlink:href="#1"/></svg><svg x="100"><use xlink:href="#a"/><use xlink:href="#b" x="27.996"/><text y="1.67" class="f">ruyadorno</text><text x="9.018" y="1.67" class="g">@macbookpro</text><text x="21.042" y="1.67" class="h">~/tmp</text><text x="27.054" y="1.67" class="i">n</text></svg><svg x="150"><use xlink:href="#a"/><use xlink:href="#b" x="28.996"/><text y="1.67" class="f">ruyadorno</text><text x="9.018" y="1.67" class="g">@macbookpro</text><text x="21.042" y="1.67" class="h">~/tmp</text><text x="27.054" y="1.67" class="i">nt</text></svg><svg x="200"><use xlink:href="#a"/><use xlink:href="#b" x="29.996"/><use xlink:href="#2"/></svg><svg x="250"><use xlink:href="#a"/><use xlink:href="#b" x="30.996"/><use xlink:href="#2"/></svg><svg x="300"><use xlink:href="#a"/><use xlink:href="#b" x="31.996"/><text y="1.67" class="f">ruyadorno</text><text x="9.018" y="1.67" class="g">@macbookpro</text><text x="21.042" y="1.67" class="h">~/tmp</text><text x="27.054" y="1.67" class="i">ntl</text><text x="31.062" y="1.67" class="i">-</text></svg><svg x="350"><use xlink:href="#a"/><use xlink:href="#b" x="32.996"/><use xlink:href="#3"/></svg><svg x="400"><use xlink:href="#a"/><use xlink:href="#b" x="-.004" y="2.146"/><use xlink:href="#3"/></svg><svg x="450"><use xlink:href="#a"/><use xlink:href="#b" x="-.004" y="4.317"/><use xlink:href="#3"/><use xlink:href="#4" y="2.171"/></svg><svg x="500"><use xlink:href="#a"/><use xlink:href="#3"/><use xlink:href="#4" y="2.171"/></svg><svg x="550"><use xlink:href="#a"/><use xlink:href="#3"/><use xlink:href="#4" y="2.171"/><use xlink:href="#5" y="4.342"/><use xlink:href="#6" y="6.513"/><use xlink:href="#7" y="8.684"/><use xlink:href="#8" y="10.855"/><use xlink:href="#9" y="13.026"/></svg><svg x="600"><use xlink:href="#a"/><use xlink:href="#3"/><use xlink:href="#4" y="2.171"/><use xlink:href="#5" y="4.342"/><use xlink:href="#6" y="6.513"/><use xlink:href="#7" y="8.684"/><use xlink:href="#8" y="10.855"/><use xlink:href="#9" y="13.026"/></svg><svg x="650"><use xlink:href="#a"/><use xlink:href="#3"/><use xlink:href="#4" y="2.171"/><use xlink:href="#5" y="4.342"/><use xlink:href="#6" y="6.513"/><use xlink:href="#7" y="8.684"/><use xlink:href="#8" y="10.855"/><use xlink:href="#9" y="13.026"/></svg><svg x="700"><use xlink:href="#a"/><use xlink:href="#3"/><use xlink:href="#4" y="2.171"/></svg><svg x="750"><use xlink:href="#a"/><use xlink:href="#3"/><use xlink:href="#4" y="2.171"/><use xlink:href="#10" y="4.342"/><use xlink:href="#11" y="6.513"/><use xlink:href="#8" y="8.684"/><use xlink:href="#9" y="10.855"/></svg><svg x="800"><use xlink:href="#a"/><use xlink:href="#3"/><use xlink:href="#4" y="2.171"/><use xlink:href="#10" y="4.342"/><use xlink:href="#11" y="6.513"/><use xlink:href="#8" y="8.684"/><use xlink:href="#9" y="10.855"/></svg><svg x="850"><use xlink:href="#a"/><use xlink:href="#3"/><use xlink:href="#4" y="2.171"/></svg><svg x="900"><use xlink:href="#a"/><use xlink:href="#3"/><use xlink:href="#4" y="2.171"/><use xlink:href="#10" y="4.342"/><use xlink:href="#12" y="6.513"/><use xlink:href="#13" y="8.684"/><use xlink:href="#9" y="10.855"/></svg><svg x="950"><use xlink:href="#a"/><use xlink:href="#3"/><use xlink:href="#4" y="2.171"/><use xlink:href="#10" y="4.342"/><use xlink:href="#12" y="6.513"/><use xlink:href="#13" y="8.684"/><use xlink:href="#9" y="10.855"/></svg><svg x="1000"><use xlink:href="#a"/><use xlink:href="#3"/><use xlink:href="#4" y="2.171"/></svg><svg x="1050"><use xlink:href="#a"/><use xlink:href="#3"/><use xlink:href="#4" y="2.171"/><use xlink:href="#10" y="4.342"/><use xlink:href="#12" y="6.513"/><use xlink:href="#14" y="8.684"/><use xlink:href="#9" y="10.855"/></svg><svg x="1100"><use xlink:href="#a"/><use xlink:href="#3"/><use xlink:href="#4" y="2.171"/><use xlink:href="#10" y="4.342"/><use xlink:href="#12" y="6.513"/><use xlink:href="#14" y="8.684"/><use xlink:href="#9" y="10.855"/></svg><svg x="1150"><use xlink:href="#a"/><use xlink:href="#3"/><use xlink:href="#4" y="2.171"/><use xlink:href="#10" y="4.342"/><use xlink:href="#12" y="6.513"/><use xlink:href="#14" y="8.684"/><use xlink:href="#9" y="10.855"/></svg><svg x="1200"><use xlink:href="#a"/><use xlink:href="#3"/><use xlink:href="#4" y="2.171"/></svg><svg x="1250"><use xlink:href="#a"/><use xlink:href="#3"/><use xlink:href="#4" y="2.171"/><use xlink:href="#15" y="4.342"/><use xlink:href="#16" y="6.513"/></svg><svg x="1300"><use xlink:href="#a"/><use xlink:href="#3"/><use xlink:href="#4" y="2.171"/><use xlink:href="#15" y="4.342"/><use xlink:href="#16" y="6.513"/></svg><svg x="1350"><use xlink:href="#a"/><use xlink:href="#3"/><use xlink:href="#4" y="2.171"/><use xlink:href="#15" y="4.342"/><use xlink:href="#16" y="6.513"/></svg><svg x="1400"><use xlink:href="#a"/><use xlink:href="#b" x="-.004" y="8.659"/><use xlink:href="#3"/><use xlink:href="#4" y="2.171"/><use xlink:href="#15" y="4.342"/><use xlink:href="#16" y="6.513"/></svg><svg x="1450"><use xlink:href="#a"/><use xlink:href="#b" x="-.004" y="17.343"/><use xlink:href="#3"/><use xlink:href="#4" y="2.171"/><use xlink:href="#15" y="4.342"/><use xlink:href="#16" y="6.513"/><use xlink:href="#17" y="10.855"/><use xlink:href="#18" y="13.026"/></svg><svg x="1500"><use xlink:href="#a"/><use xlink:href="#b" x="-.004" y="19.514"/><use xlink:href="#3"/><use xlink:href="#4" y="2.171"/><use xlink:href="#15" y="4.342"/><use xlink:href="#16" y="6.513"/><use xlink:href="#17" y="10.855"/><use xlink:href="#18" y="13.026"/><use xlink:href="#19" y="17.368"/></svg><svg x="1550"><use xlink:href="#a"/><use xlink:href="#b" x="-.004" y="28.198"/><use xlink:href="#3"/><use xlink:href="#4" y="2.171"/><use xlink:href="#15" y="4.342"/><use xlink:href="#16" y="6.513"/><use xlink:href="#17" y="10.855"/><use xlink:href="#18" y="13.026"/><use xlink:href="#19" y="17.368"/><use xlink:href="#20" y="21.71"/><use xlink:href="#21" y="23.881"/></svg><svg x="1600"><use xlink:href="#a"/><use xlink:href="#b" x="-.004" y="30.369"/><use xlink:href="#3"/><use xlink:href="#4" y="2.171"/><use xlink:href="#15" y="4.342"/><use xlink:href="#16" y="6.513"/><use xlink:href="#17" y="10.855"/><use xlink:href="#18" y="13.026"/><use xlink:href="#19" y="17.368"/><use xlink:href="#20" y="21.71"/><use xlink:href="#21" y="23.881"/><use xlink:href="#22" y="28.223"/></svg><svg x="1650"><use xlink:href="#a"/><use xlink:href="#b" x="-.004" y="30.369"/><use xlink:href="#3"/><use xlink:href="#4" y="2.171"/><use xlink:href="#15" y="4.342"/><use xlink:href="#16" y="6.513"/><use xlink:href="#17" y="10.855"/><use xlink:href="#18" y="13.026"/><use xlink:href="#19" y="17.368"/><use xlink:href="#20" y="21.71"/><use xlink:href="#21" y="23.881"/><use xlink:href="#22" y="28.223"/></svg><svg x="1700"><use xlink:href="#a"/><use xlink:href="#b" x="26.996" y="30.369"/><use xlink:href="#3"/><use xlink:href="#4" y="2.171"/><use xlink:href="#15" y="4.342"/><use xlink:href="#16" y="6.513"/><use xlink:href="#17" y="10.855"/><use xlink:href="#18" y="13.026"/><use xlink:href="#19" y="17.368"/><use xlink:href="#20" y="21.71"/><use xlink:href="#21" y="23.881"/><use xlink:href="#22" y="28.223"/><use xlink:href="#1" y="30.394"/></svg><svg x="1750"><use xlink:href="#a"/><use xlink:href="#b" x="-.004" y="30.369"/><use xlink:href="#4"/><use xlink:href="#15" y="2.171"/><use xlink:href="#16" y="4.342"/><use xlink:href="#17" y="8.684"/><use xlink:href="#18" y="10.855"/><use xlink:href="#19" y="15.197"/><use xlink:href="#20" y="19.539"/><use xlink:href="#21" y="21.71"/><use xlink:href="#22" y="26.052"/><text y="29.893" class="f">ruyadorno</text><text x="9.018" y="29.893" class="g">@macbookpro</text><text x="21.042" y="29.893" class="h">~/tmp</text><text x="27.054" y="29.893" class="i">exit</text></svg></svg></g></g></svg></svg>