<svg xmlns="http://www.w3.org/2000/svg" width="2560" height="1440"><style></style><path id="Shape 1" d="M107 60h2046c19.36 0 35 15.64 35 35v1210c0 19.36-15.64 35-35 35H107c-19.36 0-35-15.64-35-35V95c0-19.35 15.64-35 35-35z" fill="#1d242c"/><path id="Shape 2" d="M168.32 191.63c-22.85 0-41.32-18.47-41.32-41.31 0-22.85 18.47-41.32 41.32-41.32 22.84 0 41.31 18.47 41.31 41.32 0 22.84-18.47 41.31-41.31 41.31z" fill="#d94747"/><path id="Shape 2 copy" d="M285.5 191.63c-22.85 0-41.32-18.47-41.32-41.31 0-22.85 18.47-41.32 41.32-41.32s41.32 18.47 41.32 41.32c0 22.84-18.47 41.31-41.32 41.31z" fill="#e2c360"/><path id="Shape 2 copy 2" d="M402.68 191.63c-22.84 0-41.31-18.47-41.31-41.31 0-22.85 18.47-41.32 41.31-41.32 22.85 0 41.32 18.47 41.32 41.32 0 22.84-18.47 41.31-41.32 41.31z" fill="#71bb71"/><path id="$" fill="#29313a" d="M418.75 624.08v71.43q15.32 1.73 30.36 4.62 15.04 2.61 28.34 7.52 10.7 4.05 19.67 9.84 8.96 5.49 15.33 13.59 6.65 7.81 10.12 18.51 3.76 10.41 3.76 24.29 0 19.09-7.23 34.7-6.94 15.62-20.83 26.9-13.59 11.28-33.54 17.93-19.96 6.36-45.98 6.94v51.48q0 10.12-4.92 14.46-4.63 4.34-15.33 4.34t-15.62-4.34q-4.62-4.34-4.62-14.46v-54.66q-18.51-3.76-33.55-11.57-14.75-8.1-26.89-20.24v16.19q0 10.12-4.92 14.46-4.63 4.34-16.77 4.34-12.15 0-17.07-4.34-4.62-4.34-4.62-14.46v-69.4q0-10.13 4.62-14.46 4.92-4.34 17.07-4.34 6.36 0 9.83 2.89 3.47 2.89 5.78 8.96 8.39 21.69 24.58 34.13 16.2 12.44 41.94 16.77v-80.68q-15.62-2.03-30.37-4.92-14.46-2.89-27.47-8.1-9.83-3.76-17.93-9.25-8.1-5.5-14.17-13.02-5.79-7.51-9.26-17.35-3.18-9.83-3.18-22.55 0-19.38 7.81-34.13 7.81-15.04 21.4-25.16 13.88-10.12 32.39-15.33 18.8-5.2 40.78-5.2v-46.56q0-10.13 4.62-14.46 4.92-4.34 15.62-4.34t15.33 4.34q4.92 4.33 4.92 14.46v50.32q15.32 4.05 28.05 11.56 12.72 7.23 22.84 16.49v-13.01q0-10.13 4.63-14.46 4.92-4.34 17.06-4.34 12.15 0 16.78 4.34 4.91 4.33 4.91 14.46v54.94q0 10.12-4.91 14.46-4.63 4.34-16.78 4.34-9.83 0-13.88-7.52-9.25-17.64-24-27.47-14.75-10.12-34.7-13.88zm0 115.96v78.38q30.94-1.45 46.27-13.6 15.61-12.14 15.61-30.94 0-10.41-6.65-16.48-6.65-6.37-17.93-10.13-7.81-2.6-17.35-4.04-9.25-1.74-19.95-3.19zm-40.49-48.58v-69.12q-26.9.58-41.94 10.41-14.75 9.83-14.75 27.48 0 9.54 6.08 15.32 6.36 5.79 17.35 9.26 6.94 2.31 15.33 3.76 8.38 1.44 17.93 2.89z"/><path id="ntl" fill="#77899e" d="M700.7 855V674.42h-32.37q-5.67 0-9.68-1.41-4-1.4-6.67-5.27-2.34-3.86-3.68-10.89-1-7.02-1-18.27 0-11.24 1-18.26 1.34-7.03 3.68-10.9 2.67-4.21 6.67-5.62 4.01-1.4 9.68-1.4h81.44q11.34 0 16.02 5.27 5 4.92 5 16.86v50.94q23.36-42.86 51.07-61.83 27.7-18.97 59.07-18.97 23.03 0 41.72 8.08 18.69 8.08 31.71 22.83 13.01 14.76 20.02 36.19 7.34 21.08 7.34 47.43V855h25.7q5.68 0 9.68 1.4 4.01 1.41 6.34 5.62 2.67 3.87 3.68 10.89 1.33 7.03 1.33 18.27 0 11.25-1.33 18.27-1.01 7.03-3.68 10.89-2.33 3.87-6.34 5.27-4 1.41-9.68 1.41H882.6q-5.67 0-9.68-1.41-4-1.4-6.67-5.27-2.34-3.86-3.68-10.89-1-7.02-1-18.27 0-11.24 1-18.27 1.34-7.02 3.68-10.89 2.67-4.21 6.67-5.62 4.01-1.4 9.68-1.4h15.69V729.93q0-26-8.68-40.76-8.35-14.75-30.37-14.75-15.02 0-28.71 10.19-13.35 9.83-23.69 26.7-10.35 16.86-16.69 39.35-6.01 22.48-6.01 47.07V855h15.69q5.67 0 9.68 1.4 4 1.41 6.34 5.62 2.67 3.87 3.67 10.89 1.34 7.03 1.34 18.27 0 11.25-1.34 18.27-1 7.03-3.67 10.89-2.34 3.87-6.34 5.27-4.01 1.41-9.68 1.41H675q-5.67 0-9.67-1.41-4.01-1.4-6.68-5.27-2.34-3.86-3.67-10.89-1-7.02-1-18.27 0-11.24 1-18.27 1.33-7.02 3.67-10.89 2.67-4.21 6.68-5.62 4-1.4 9.67-1.4h25.7zm396.25-155.99h-64.42q-5.67 0-9.68-1.76-4-1.75-6.67-5.97-2.34-4.21-3.67-11.24-1.01-7.38-1.01-18.62 0-11.24 1.01-18.62 1.33-7.38 3.67-11.59 2.67-4.22 6.67-5.98 4.01-1.75 9.68-1.75h64.42V524.4q0-11.94 10.01-16.86 10.01-5.27 34.04-5.27 12.02 0 19.36 1.41 7.68 1.05 12.01 3.86 4.68 2.46 6.35 6.68 1.66 4.21 1.66 10.18v99.08h123.83q5.67 0 9.68 1.75 4 1.76 6.34 5.98 2.67 4.21 3.67 11.59 1.33 7.38 1.33 18.62 0 11.24-1.33 18.62-1 7.03-3.67 11.24-2.34 4.22-6.34 5.97-4.01 1.76-9.68 1.76h-123.83v97.67q0 30.56 11.02 44.62 11.35 13.7 32.04 13.7 8.34 0 18.35-2.11 10.35-2.46 21.03-6.32 10.68-3.87 22.03-8.79 11.35-4.92 22.36-10.19 5.01-2.46 9.68-2.81 5.01-.7 9.34 1.76 4.68 2.11 8.68 8.08 4.34 5.62 8.35 16.16 8.01 20.73 5.34 31.27-2.34 10.54-13.35 16.16-30.38 16.16-60.41 26.35-29.71 10.19-58.74 10.19-58.41 0-88.78-33.73-30.37-33.73-30.37-99.77V699.01zM1494.52 855V538.11h-77.76q-5.68 0-9.68-1.41-4.01-1.4-6.68-5.27-2.33-3.86-3.67-10.89-1-7.03-1-18.27 0-11.24 1-18.27 1.34-7.02 3.67-10.89 2.67-4.21 6.68-5.62 4-1.4 9.68-1.4h140.17q11.35 0 16.02 5.27 5.01 4.91 5.01 16.86V855h93.79q5.67 0 9.67 1.4 4.01 1.41 6.35 5.62 2.67 3.87 3.67 10.89 1.33 7.03 1.33 18.27 0 11.25-1.33 18.27-1 7.03-3.67 10.89-2.34 3.87-6.35 5.27-4 1.41-9.67 1.41h-268.34q-5.68 0-9.68-1.41-4.01-1.4-6.68-5.27-2.33-3.86-3.67-10.89-1-7.02-1-18.27 0-11.24 1-18.27 1.34-7.02 3.67-10.89 2.67-4.21 6.68-5.62 4-1.4 9.68-1.4h91.11z"/></svg>